<?xml version="1.0" encoding="utf-8"?>
<!-- Generator: Adobe Illustrator 27.0.0, SVG Export Plug-In . SVG Version: 6.00 Build 0)  -->
<svg version="1.1" id="Layer_1" xmlns="http://www.w3.org/2000/svg" xmlns:xlink="http://www.w3.org/1999/xlink" x="0px" y="0px"
	 viewBox="0 0 148 50" style="enable-background:new 0 0 148 50;" xml:space="preserve">
<style type="text/css">
	.st0{fill-rule:evenodd;clip-rule:evenodd;fill:#FFFFFF;}
	.st1{fill:#FFFFFF;}
</style>
<g>
	<g>
		<path class="st0" d="M72.6,31.7v9.1c0,3.3-2.6,6-5.8,6h-8.4c-3.2,0-5.8-2.7-5.8-6l0-27.8c0-3.3,2.6-6,5.8-6h4
			c1.8,0,1.8-0.4,1.8-0.6h8c0.2,0,0.3,0.1,0.3,0.3v14.9c0,0.2-0.1,0.3-0.3,0.3l-7.7,0c-0.2,0-0.3-0.1-0.3-0.3l0-4.6
			c0-0.7-0.6-1.3-1.3-1.3l0,0c-0.7,0-1.3,0.6-1.3,1.3v19.7c0,0.7,0.6,1.3,1.3,1.3l0,0c0.7,0,1.3-0.6,1.3-1.3l0-5.1
			c0-0.2,0.1-0.3,0.3-0.3l7.7,0C72.5,31.4,72.6,31.5,72.6,31.7L72.6,31.7z"/>
		<path class="st0" d="M85.9,36.8c0,0.7-0.6,1.3-1.3,1.3l0,0c-0.7,0-1.3-0.6-1.3-1.3V16.9c0-0.7,0.6-1.3,1.3-1.3l0,0
			c0.7,0,1.3,0.6,1.3,1.3V36.8z M94.3,12.9c0-3.3-2.6-6.1-5.8-6.1h-8.4c-3.2,0-5.8,2.7-5.8,6.1v27.9c0,3.3,2.6,6.1,5.8,6.1h8.4
			c3.2,0,5.8-2.7,5.8-6.1V12.9z"/>
		<path class="st0" d="M50.9,35H43c0,0.7,0,3.1-1.8,3.1l-0.4,0c-0.2,0-0.3-0.1-0.3-0.3v-8h0.6c0,0,1.8-0.2,1.9,2.3
			c0,0.2,0.2,0.4,0.4,0.4h4.2c0.2,0,0.3-0.1,0.3-0.3l0-9.5c0-0.2-0.1-0.3-0.3-0.3h-4.1c-0.2,0-0.4,0.2-0.4,0.4c0,1.6-0.9,2.3-2,2.3
			h-0.6v-8.7c0-0.2,0.1-0.3,0.3-0.3l0.4,0c2.1,0,1.8,2.2,1.8,3.7h7.9c0.2,0,0.3-0.1,0.3-0.3V7.7c0-0.2-0.1-0.3-0.2-0.3L29,7.4
			c-0.2,0-0.3,0.1-0.3,0.3v8c0,0.2,0.1,0.3,0.3,0.3h1.9c0.2,0,0.3,0.1,0.3,0.3v21.3c0,0.2-0.1,0.3-0.3,0.3H29
			c-0.2,0-0.3,0.1-0.3,0.3v7.8c0,0.2,0.1,0.3,0.3,0.3h21.9c0.2,0,0.3-0.1,0.3-0.3l0-10.9C51.2,35.1,51.1,35,50.9,35z"/>
		<path class="st0" d="M107.3,29.6h0.7c1,0,1.9,0.9,1.9,2v9c0,3.3,2.6,5.9,5.7,5.9h6.3c0.2,0,0.3-0.1,0.3-0.3v-7.9
			c0-0.2-0.2-0.3-0.4-0.3h-0.1c-1.4,0-2.6-1.2-2.6-2.7v-4c0-2.1-1-3.9-2.6-5c1.6-1.1,2.6-2.9,2.6-5v-8c0-3.3-2.5-5.9-5.7-5.9H95.8
			c-0.2,0-0.3,0.1-0.3,0.3v7.9c0,0.2,0.1,0.3,0.3,0.3h2c0.2,0,0.3,0.1,0.3,0.3v21.3c0,0.2-0.1,0.3-0.3,0.3h-1.9
			c-0.2,0-0.3,0.1-0.3,0.3v7.9c0,0.2,0.1,0.3,0.3,0.3h13c0.2,0,0.3-0.1,0.3-0.3v-7.9c0-0.2-0.1-0.3-0.3-0.3h-1.3
			c-0.2,0-0.3-0.1-0.3-0.3l0-21.6h0.7c1,0,1.9,0.9,1.9,2v5c0,1.1-0.8,2-1.9,2h-0.7L107.3,29.6L107.3,29.6z"/>
		<path class="st0" d="M137.7,36c0,1.1-0.8,2-1.9,2h-0.7v-22h0.7c1,0,1.9,0.9,1.9,2V36z M147,13.3c0-3.3-2.5-5.9-5.7-5.9h-17.7
			c-0.2,0-0.3,0.1-0.3,0.3v7.8c0,0.2,0.1,0.3,0.3,0.3h2c0.2,0,0.3,0.1,0.3,0.3v21.4c0,0.2-0.1,0.3-0.3,0.3h-2
			c-0.2,0-0.3,0.1-0.3,0.3v7.9c0,0.2,0.1,0.3,0.3,0.3h17.7c3.1,0,5.7-2.6,5.7-5.9V13.3z"/>
		<path class="st0" d="M12.9,29.6h0.7c1,0,1.9,0.9,1.9,2v9c0,3.3,2.6,5.9,5.7,5.9h6c0.2,0,0.3-0.1,0.3-0.3v-7.9
			c0-0.2-0.2-0.3-0.4-0.3h-0.1c-1.4,0-2.2-1.2-2.2-2.7v-4c0-2.1-1-3.9-2.6-5c1.6-1.1,2.6-2.9,2.6-5v-8c0-3.3-2.5-5.9-5.7-5.9H1.4
			c-0.2,0-0.3,0.1-0.3,0.3v7.9c0,0.2,0.1,0.3,0.3,0.3h2c0.2,0,0.3,0.1,0.3,0.3v21.3c0,0.2-0.1,0.3-0.3,0.3H1.5
			c-0.2,0-0.3,0.1-0.3,0.3v7.9c0,0.2,0.1,0.3,0.3,0.3h13c0.2,0,0.3-0.1,0.3-0.3v-7.9c0-0.2-0.1-0.3-0.3-0.3h-1.3
			c-0.2,0-0.3-0.1-0.3-0.3l0-21.6h0.7c1,0,1.9,0.9,1.9,2v5c0,1.1-0.8,2-1.9,2h-0.7L12.9,29.6L12.9,29.6z"/>
	</g>
	<path class="st1" d="M47.1,3.2c0-0.3-0.2-0.5-0.5-0.5L34.2,4.4c-0.3,0-0.5,0.2-0.5,0.5v0.9c0,0.3,0.2,0.5,0.5,0.5h12.5
		c0.3,0,0.5-0.2,0.5-0.5V3.2z"/>
</g>
</svg>
